<svg width="68" height="68" viewBox="0 0 68 68" fill="none" xmlns="http://www.w3.org/2000/svg">
<ellipse cx="34.0633" cy="34.3954" rx="33.1899" ry="33.5814" fill="#F3821A"/>
<path d="M27.934 38.8694C27.934 41.1019 29.6274 42.9017 31.7312 42.9017H36.0244C37.8546 42.9017 39.3427 41.3269 39.3427 39.3886C39.3427 37.2772 38.4361 36.533 37.0849 36.0485L30.1918 33.6256C28.8406 33.141 27.934 32.3969 27.934 30.2855C27.934 28.3472 29.4221 26.7723 31.2523 26.7723H35.5455C37.6493 26.7723 39.3427 28.5722 39.3427 30.8047" stroke="white" stroke-width="4" stroke-linecap="round" stroke-linejoin="round"/>
<path d="M33.6266 24.4535V45.2209" stroke="white" stroke-width="4" stroke-linecap="round" stroke-linejoin="round"/>
<path d="M33.6266 52.1434C43.0731 52.1434 50.731 44.3952 50.731 34.8372C50.731 25.2793 43.0731 17.531 33.6266 17.531C24.1801 17.531 16.5222 25.2793 16.5222 34.8372C16.5222 44.3952 24.1801 52.1434 33.6266 52.1434Z" stroke="white" stroke-width="4" stroke-linecap="round" stroke-linejoin="round"/>
</svg>
