<svg width="68" height="68" viewBox="0 0 68 68" fill="none" xmlns="http://www.w3.org/2000/svg">
<ellipse cx="34.0633" cy="34.3954" rx="33.1899" ry="33.5814" fill="#F3821A"/>
<path d="M44.8311 37.5198C44.1127 38.2293 43.7022 39.2504 43.8048 40.3407C43.9588 42.2097 45.6521 43.5769 47.4994 43.5769H50.7492V45.6364C50.7492 49.2188 47.8586 52.1435 44.318 52.1435H27.0425C28.4621 50.8802 29.3687 49.0284 29.3687 46.9517C29.3687 43.127 26.307 40.0292 22.5269 40.0292C20.9191 40.0292 19.431 40.6003 18.2508 41.5521V33.9893C18.2508 30.4069 21.1414 27.4822 24.682 27.4822H44.318C47.8586 27.4822 50.7492 30.4069 50.7492 33.9893V36.4814H47.2941C46.3363 36.4814 45.4639 36.8621 44.8311 37.5198Z" stroke="white" stroke-width="4" stroke-linecap="round" stroke-linejoin="round"/>
<path d="M18.2508 33.9893V27.6379C18.2508 25.5785 19.4994 23.744 21.398 23.0171L34.9789 17.8252C37.0999 17.0291 39.3748 18.6041 39.3748 20.9058V27.4821" stroke="white" stroke-width="4" stroke-linecap="round" stroke-linejoin="round"/>
<path d="M52.5602 38.2469V41.812C52.5602 42.7639 51.8076 43.5426 50.8498 43.5772H47.4973C45.6501 43.5772 43.9567 42.21 43.8028 40.3409C43.7002 39.2506 44.1106 38.2296 44.829 37.52C45.4619 36.8624 46.3342 36.4817 47.2921 36.4817H50.8498C51.8076 36.5163 52.5602 37.295 52.5602 38.2469Z" stroke="white" stroke-width="4" stroke-linecap="round" stroke-linejoin="round"/>
<path d="M25.9478 34.8373H37.9209" stroke="white" stroke-width="4" stroke-linecap="round" stroke-linejoin="round"/>
<path d="M29.3687 46.9517C29.3687 49.0284 28.4621 50.8802 27.0425 52.1435C25.8281 53.2165 24.2544 53.8741 22.5269 53.8741C18.7468 53.8741 15.6851 50.7763 15.6851 46.9517C15.6851 44.7711 16.6772 42.8155 18.2508 41.5521C19.431 40.6003 20.9191 40.0292 22.5269 40.0292C26.307 40.0292 29.3687 43.127 29.3687 46.9517Z" stroke="white" stroke-width="4" stroke-miterlimit="10" stroke-linecap="round" stroke-linejoin="round"/>
<path d="M22.9545 44.7883V47.3843L20.8165 48.6822" stroke="white" stroke-width="4" stroke-miterlimit="10" stroke-linecap="round" stroke-linejoin="round"/>
</svg>
